:SAMPLES-PER-SECOND 30
:FULLY-SPECIFIED
:DEGREES
78
root  36.9311 33.4476 8.30525 -13.1253 -53.7324 4.54747
RightUpLeg  -25.5 -9.78122 -11.2477
RightLeg  68.9386 -6.71759 -19.3688
RightFoot  -24.869 0.719448 7.48786
RightToes  0.000482159 0.542163 -0.142577
Spine  32.5177 1.02313 -10.8958
Spine1  -7.18393 -0.299478 -12.0604
HEad  -60.2785 -32.7351 12.295
LeftShoulder1  9.08709 -15.7507 -40.8863
LeftArm  0.706227 2.13285 -33.0883
LeftForeArm  125.222 -81.7026 -82.0264
LeftHand  -0.25398 0.0180481 5.50724
RightShoulder  7.15835 12.1278 39.6691
RightArm  9.18955 -3.23892 41.7307
RightForeArm  36.8061 65.3705 21.1118
RightHand  -0.863561 0.735007 -16.4353
LeftUpLeg  -22.2593 3.28119 13.1423
LeftLeg  59.9809 0.512877 1.54376
LeftFoot  -24.8501 -1.91656 -17.3194
LeftToes  1.06246e-005 4.65855e-005 -8.18502e-006
79
root  37.4812 33.5031 8.45621 -14.4446 -54.0034 4.07126
RightUpLeg  -24.2063 -9.27376 -12.0755
RightLeg  68.3317 -6.17509 -17.4134
RightFoot  -23.4959 0.574668 6.89606
RightToes  0.000482159 0.542163 -0.142577
Spine  32.1415 1.06184 -10.5421
Spine1  -5.7693 -0.199899 -10.2036
HEad  -56.7383 -31.6142 11.4985
LeftShoulder1  9.21622 -15.7378 -41.5458
LeftArm  2.26584 1.22004 -33.7768
LeftForeArm  123.089 -81.646 -80.4248
LeftHand  -0.25398 0.0180481 5.50724
RightShoulder  7.16796 12.1071 39.7855
RightArm  8.40132 -1.65168 42.7753
RightForeArm  40.2653 68.9664 25.5793
RightHand  -0.915648 0.702274 -17.455
LeftUpLeg  -21.2317 3.20205 12.6012
LeftLeg  60.3184 0.984767 2.458
LeftFoot  -24.51 -1.70984 -15.9891
LeftToes  1.06246e-005 4.65855e-005 -8.18502e-006
80
root  38.0261 33.6523 8.52863 -15.6026 -54.9682 4.33871
RightUpLeg  -23.4457 -9.26911 -12.6543
RightLeg  66.8774 -6.50977 -16.9675
RightFoot  -22.8329 0.525061 6.75533
RightToes  0.000482159 0.542163 -0.142577
Spine  31.4835 1.2489 -10.4824
Spine1  -4.61472 0.00372973 -8.81948
HEad  -53.7475 -29.1884 12.289
LeftShoulder1  9.29031 -15.7588 -41.8567
LeftArm  3.93656 0.0314862 -33.8617
LeftForeArm  119.902 -81.5545 -77.4398
LeftHand  -0.25398 0.0180481 5.50724
RightShoulder  7.13043 11.9616 39.9657
RightArm  7.65938 -1.0435 43.8051
RightForeArm  44.1242 71.486 29.782
RightHand  -1.13423 1.59237 -18.9121
LeftUpLeg  -20.3543 4.00583 11.9979
LeftLeg  59.7954 1.15334 2.72441
LeftFoot  -23.7236 -1.52901 -15.33
LeftToes  1.06246e-005 4.65855e-005 -8.18502e-006
81
root  38.579 33.8452 8.52512 -16.657 -56.6989 5.39569
RightUpLeg  -23.9276 -8.60647 -13.2392
RightLeg  65.0604 -6.68042 -15.9513
RightFoot  -21.9104 0.456806 6.53521
RightToes  0.000482159 0.542163 -0.142577
Spine  31.0439 1.39367 -10.6293
Spine1  -4.59165 0.0764232 -8.41311
HEad  -51.3149 -24.3828 14.4375
LeftShoulder1  9.25648 -15.6815 -41.8737
LeftArm  5.10577 -0.698151 -33.4378
LeftForeArm  117.324 -81.4626 -74.9766
LeftHand  -0.25398 0.0180481 5.50724
RightShoulder  7.09834 11.8494 40.0873
RightArm  7.76795 -1.38395 44.4241
RightForeArm  48.1696 73.0528 32.9156
RightHand  -1.3759 2.67104 -19.9165
LeftUpLeg  -19.8058 5.53637 11.2501
LeftLeg  58.6647 1.33345 2.92237
LeftFoot  -23.0714 -1.4379 -15.2646
LeftToes  1.06246e-005 4.65855e-005 -8.18502e-006
82
root  39.1339 34.0688 8.4583 -17.4026 -58.8087 6.60602
RightUpLeg  -25.2585 -7.95612 -13.6586
RightLeg  63.3004 -5.81046 -12.9659
RightFoot  -20.4248 0.315874 5.70243
RightToes  0.000482159 0.542163 -0.142577
Spine  31.1037 1.3395 -10.7135
Spine1  -5.19932 -0.090741 -8.57115
HEad  -50.9961 -22.5304 15.6732
LeftShoulder1  9.17055 -15.543 -41.7807
LeftArm  5.56684 -1.22644 -32.8817
LeftForeArm  111.463 -81.1838 -69.5463
LeftHand  -0.25398 0.0180481 5.50724
RightShoulder  7.1238 11.8978 40.1063
RightArm  8.57145 -2.21604 44.1875
RightForeArm  50.6365 73.7423 34.4007
RightHand  -1.47934 3.12891 -20.265
LeftUpLeg  -19.723 7.36567 10.5764
LeftLeg  57.3069 1.96091 3.82785
LeftFoot  -22.1825 -1.27158 -14.7183
LeftToes  1.06246e-005 4.65855e-005 -8.18502e-006
83
root  39.6934 34.3438 8.32656 -17.476 -60.9412 7.44434
RightUpLeg  -26.7432 -9.12122 -13.5548
RightLeg  61.4101 -5.09067 -10.5547
RightFoot  -19.1861 0.187595 4.64436
RightToes  0.000482159 0.542163 -0.142577
Spine  31.4707 1.207 -10.7627
Spine1  -5.81864 -0.41604 -8.32345
HEad  -51.0983 -20.5484 16.5782
LeftShoulder1  9.10743 -15.4444 -41.7042
LeftArm  5.53573 -1.93471 -32.7146
LeftForeArm  99.6506 -80.2718 -58.2455
LeftHand  -0.25398 0.0180481 5.50724
RightShoulder  7.13907 12 39.91
RightArm  9.40728 -3.16991 43.2246
RightForeArm  49.2701 73.2796 33.3307
RightHand  -1.53094 3.34694 -20.4499
LeftUpLeg  -20.0811 9.29371 10.2377
LeftLeg  55.6894 2.63254 4.66596
LeftFoot  -20.6551 -1.00604 -13.8097
LeftToes  1.06246e-005 4.65855e-005 -8.18502e-006
84
root  40.2578 34.6465 8.12053 -16.7456 -62.8803 7.85622
RightUpLeg  -28.1971 -12.6767 -12.8514
RightLeg  59.3083 -5.96817 -11.1974
RightFoot  -19.1465 0.163345 4.29404
RightToes  0.000482159 0.542163 -0.142577
Spine  31.9589 1.20128 -11.035
Spine1  -6.73761 -0.82356 -7.06448
HEad  -51.6358 -18.1794 17.1179
LeftShoulder1  9.12611 -15.4305 -41.8291
LeftArm  5.5396 -2.74304 -33.0127
LeftForeArm  86.4119 -78.3957 -45.2378
LeftHand  -0.25398 0.0180481 5.50724
RightShoulder  7.07421 12.0043 39.5001
RightArm  9.60414 -4.39299 42.0245
RightForeArm  43.1535 71.18 29.3509
RightHand  -1.73618 4.11736 -21.2948
LeftUpLeg  -20.8484 11.2977 10.1913
LeftLeg  53.7286 2.83848 4.64536
LeftFoot  -18.9173 -0.78184 -13.478
LeftToes  1.06246e-005 4.65855e-005 -8.18502e-006
85
root  40.7664 34.9186 7.8442 -15.6193 -64.4561 7.96112
RightUpLeg  -29.4354 -16.963 -11.9757
RightLeg  58.0062 -7.77672 -13.6331
RightFoot  -19.853 0.202581 4.52885
RightToes  0.000482159 0.542163 -0.142577
Spine  32.5259 1.31309 -11.4005
Spine1  -8.0285 -1.20763 -5.2376
HEad  -52.7105 -15.3897 17.1633
LeftShoulder1  9.26152 -15.5216 -42.2766
LeftArm  6.2475 -3.71519 -33.4223
LeftForeArm  76.7542 -75.9411 -35.5089
LeftHand  -0.25398 0.0180481 5.50724
RightShoulder  7.00032 11.9418 39.2207
RightArm  8.63873 -6.08594 40.8588
RightForeArm  33.9475 67.144 23.8486
RightHand  -2.13317 5.36484 -23.0892
LeftUpLeg  -21.7892 13.1535 10.279
LeftLeg  51.6968 2.93653 4.44868
LeftFoot  -17.3778 -0.612089 -13.5179
LeftToes  1.06246e-005 4.65855e-005 -8.18502e-006
86
root  41.1274 35.1449 7.50719 -14.757 -65.6706 7.81281
RightUpLeg  -29.6133 -19.5577 -11.7383
RightLeg  58.8367 -8.6356 -15.4945
RightFoot  -19.8605 0.218735 4.74498
RightToes  0.000482159 0.542163 -0.142577
Spine  33.0314 1.38258 -11.3387
Spine1  -8.78801 -1.38754 -3.78549
HEad  -53.8671 -12.9016 16.6876
LeftShoulder1  9.44117 -15.6818 -42.7683
LeftArm  7.97197 -5.19218 -33.991
LeftForeArm  70.8462 -73.5429 -29.4063
LeftHand  -0.25398 0.0180481 5.50724
RightShoulder  6.99769 11.9051 39.3075
RightArm  6.53658 -7.92703 39.8641
RightForeArm  23.9493 61.0993 18.4698
RightHand  -2.66225 6.8105 -25.3299
LeftUpLeg  -22.2624 14.5173 10.6265
LeftLeg  49.8307 3.32167 4.65847
LeftFoot  -15.7823 -0.416501 -13.1004
LeftToes  1.06246e-005 4.65855e-005 -8.18502e-006
87
root  41.3083 35.3158 7.10213 -14.8384 -66.5898 7.8909
RightUpLeg  -27.8795 -19.6708 -12.7209
RightLeg  61.8031 -8.16756 -16.5832
RightFoot  -19.3157 0.21884 5.01262
RightToes  0.000482159 0.542163 -0.142577
Spine  33.1565 1.39299 -10.9535
Spine1  -8.51063 -1.33706 -2.98157
HEad  -54.1312 -11.3674 15.7691
LeftShoulder1  9.53689 -15.7721 -43.014
LeftArm  10.4564 -7.07863 -35.2377
LeftForeArm  67.4154 -71.6196 -25.8104
LeftHand  -0.25398 0.0180481 5.50724
RightShoulder  7.00541 11.8608 39.4801
RightArm  4.34243 -9.48544 39.1159
RightForeArm  14.1644 53.1006 13.9181
RightHand  -3.28856 8.55098 -27.3106
LeftUpLeg  -21.8119 15.4069 11.2948
LeftLeg  48.1399 3.48249 4.59372
LeftFoot  -14.1007 -0.222494 -12.7321
LeftToes  1.06246e-005 4.65855e-005 -8.18502e-006
88
root  41.3491 35.4041 6.62792 -16.0962 -67.1847 8.87555
RightUpLeg  -24.5159 -18.5565 -14.5725
RightLeg  65.701 -7.40155 -18.0232
RightFoot  -19.6622 0.243043 5.18189
RightToes  0.000482159 0.542163 -0.142577
Spine  32.7069 1.39942 -10.7561
Spine1  -7.97307 -1.22711 -2.32012
HEad  -53.0254 -10.4443 14.15
LeftShoulder1  9.57151 -15.7001 -43.3525
LeftArm  13.3861 -8.7688 -37.2329
LeftForeArm  66.0276 -70.5507 -24.1263
LeftHand  -0.25398 0.0180481 5.50724
RightShoulder  6.9527 11.7566 39.4481
RightArm  3.59198 -11.0772 38.2699
RightForeArm  4.7269 44.0283 10.5
RightHand  -3.86111 10.2143 -28.596
LeftUpLeg  -20.7914 16.2146 11.945
LeftLeg  46.5903 3.10712 3.93614
LeftFoot  -12.8628 -0.100864 -13.3563
LeftToes  1.06246e-005 4.65855e-005 -8.18502e-006
